<svg width="120" height="113" viewBox="0 0 120 113" fill="none" xmlns="http://www.w3.org/2000/svg">
<path d="M12.2367 57.4922L4.18484 60.5801L4.17926 59.1721L10.9376 56.7133L4.1599 54.2922L4.15444 52.9162L12.2305 55.9402L12.2367 57.4922ZM12.3894 50.3136L4.40624 49.1744L4.5961 47.8439L12.5792 48.9831L12.3894 50.3136ZM2.80634 48.2673C2.76867 48.5313 2.65255 48.741 2.45798 48.8964C2.25435 49.0398 2.02055 49.0926 1.75655 49.0549C1.49256 49.0173 1.29342 48.9027 1.15913 48.7111C1.01579 48.5075 0.96296 48.2737 1.00063 48.0097C1.03679 47.7562 1.15216 47.5518 1.34673 47.3964C1.53074 47.2395 1.75474 47.1799 2.01874 47.2176C2.28273 47.2552 2.49168 47.3766 2.64557 47.5818C2.78891 47.7854 2.8425 48.0139 2.80634 48.2673ZM14.4221 42.3946C14.203 43.1195 13.8401 43.7119 13.3334 44.1716C12.8299 44.6212 12.229 44.9132 11.5309 45.0476C10.8226 45.179 10.0652 45.1228 9.25854 44.879C8.4417 44.6322 7.77835 44.2645 7.2685 43.7762C6.76174 43.2776 6.42475 42.6966 6.25752 42.0331C6.09338 41.3595 6.12239 40.6551 6.34457 39.92C6.57292 39.1644 6.93426 38.5771 7.42859 38.1582C7.926 37.7291 8.49205 37.46 9.12673 37.351C9.7543 37.2286 10.3948 37.2662 11.0483 37.4637C11.1504 37.4946 11.2576 37.527 11.3699 37.5609C11.4822 37.5949 11.6083 37.6385 11.7482 37.6919L9.84115 44.0021L8.84562 43.7012L10.3777 38.6317C9.66395 38.4494 9.04161 38.5176 8.5107 38.8363C7.98289 39.1448 7.62023 39.6258 7.42274 40.2792C7.29005 40.7183 7.26872 41.1576 7.35876 41.5971C7.44167 42.0233 7.64318 42.4073 7.96329 42.7492C8.2732 43.088 8.71404 43.3439 9.28583 43.5167L9.71468 43.6463C10.3477 43.8376 10.9126 43.8857 11.4094 43.7907C11.9092 43.6855 12.3218 43.4815 12.6474 43.1787C12.9759 42.8657 13.205 42.4948 13.3347 42.0659C13.4982 41.5248 13.515 41.0451 13.3851 40.627C13.248 40.1956 12.9984 39.8416 12.6363 39.565L13.0205 38.2937C13.4429 38.5551 13.7917 38.8945 14.0667 39.3119C14.3417 39.7293 14.517 40.2002 14.5925 40.7245C14.661 41.2354 14.6041 41.7922 14.4221 42.3946ZM17.1062 35.1197L8.96053 33.0499L9.64512 31.8933L16.4341 33.7737L16.3118 33.9802L11.4789 28.7954L12.2531 27.4873L19.1261 29.1943L19.0095 29.4227L14.0868 24.3894L14.7796 23.219L20.521 29.3506L19.8201 30.5347L12.631 28.7336L12.7695 28.4995L17.8071 33.9356L17.1062 35.1197ZM29.6305 19.4289C29.0449 19.9092 28.4055 20.2061 27.7122 20.3195C27.0271 20.4262 26.353 20.3445 25.69 20.0743C25.0202 19.796 24.4215 19.3351 23.8938 18.6919C23.3527 18.0321 23.0145 17.3507 22.8793 16.6476C22.7441 15.9445 22.7958 15.2675 23.0344 14.6165C23.2745 13.9505 23.6873 13.3774 24.2729 12.8971C25.0151 12.2883 25.7926 11.9748 26.6054 11.9565C27.4114 11.93 28.1442 12.1843 28.8038 12.7193L27.7399 13.592C27.3395 13.272 26.8906 13.1367 26.393 13.1861C25.8955 13.2355 25.4282 13.4394 24.9911 13.798C24.6365 14.0888 24.381 14.4502 24.2246 14.8819C24.0616 15.3054 24.0347 15.7688 24.1442 16.2723C24.2536 16.7757 24.5214 17.2873 24.9476 17.8068C25.2655 18.1945 25.6033 18.4969 25.9608 18.7141C26.3115 18.923 26.6588 19.0521 27.0026 19.1012C27.3464 19.1503 27.6818 19.1304 28.0089 19.0414C28.3375 18.9374 28.6338 18.7772 28.8977 18.5608C29.1946 18.3172 29.4254 18.052 29.5902 17.7651C29.7482 17.47 29.8318 17.1599 29.8412 16.8349C29.8506 16.51 29.7792 16.196 29.6273 15.8929L30.6912 15.0203C31.0733 15.7553 31.1752 16.5271 30.9968 17.3356C30.8199 18.1291 30.3645 18.8269 29.6305 19.4289ZM37.0489 14.3284C36.4721 14.6295 35.938 14.782 35.4467 14.7859C34.9504 14.7802 34.5213 14.6613 34.1594 14.4291C33.7926 14.1874 33.5055 13.868 33.2982 13.4709C33.0464 12.9887 32.9571 12.5179 33.0301 12.0586C33.1077 11.5849 33.329 11.1445 33.694 10.7373C34.0635 10.3158 34.5603 9.9421 35.1844 9.61629L37.0708 8.63144C36.8388 8.18702 36.5753 7.85528 36.2805 7.63621C35.9901 7.40274 35.6731 7.27948 35.3293 7.26641C34.995 7.24841 34.6341 7.34061 34.2464 7.54301C33.7925 7.77997 33.4594 8.0983 33.2469 8.49802C33.0344 8.89773 33.0064 9.33954 33.1627 9.82345L31.943 10.4603C31.7331 9.92005 31.6812 9.40569 31.7871 8.91719C31.8976 8.4143 32.1282 7.95702 32.4788 7.54534C32.8244 7.12421 33.2384 6.78776 33.7206 6.53599C34.3825 6.19043 34.9951 6.02703 35.5584 6.04579C36.1263 6.05016 36.6325 6.21305 37.077 6.53447C37.5166 6.84643 37.8895 7.29553 38.1956 7.88177L40.5059 12.307L39.4421 12.8623L38.7122 11.6371C38.7213 11.885 38.6971 12.1383 38.6396 12.3969C38.5866 12.6412 38.4954 12.8813 38.366 13.1174C38.2316 13.3439 38.0565 13.5617 37.8407 13.7706C37.6343 13.9746 37.3704 14.1606 37.0489 14.3284ZM36.7075 13.2251C37.0385 13.0523 37.3018 12.8306 37.4974 12.56C37.6976 12.2751 37.8305 11.965 37.8962 11.6299C37.957 11.2853 37.9581 10.9418 37.8996 10.5993C37.8506 10.2518 37.7422 9.91739 37.5743 9.5959L37.5521 9.55335L35.765 10.4864C35.3017 10.7283 34.9578 10.98 34.7334 11.2416C34.504 11.4937 34.3797 11.7511 34.3605 12.0138C34.3363 12.2671 34.3884 12.5167 34.5167 12.7625C34.65 13.0178 34.8227 13.2104 35.0349 13.3403C35.2566 13.4652 35.508 13.5205 35.7893 13.506C36.08 13.4866 36.3861 13.393 36.7075 13.2251ZM46.236 10.4356C45.5914 10.6255 44.997 10.6839 44.4528 10.6107C43.9188 10.5345 43.4528 10.3493 43.0548 10.0551C42.664 9.74768 42.361 9.3421 42.1459 8.83836L43.4658 8.4495C43.5953 8.70046 43.7751 8.91437 44.0051 9.09124C44.2352 9.26811 44.5094 9.38747 44.8279 9.44933C45.1536 9.49794 45.521 9.46196 45.9303 9.34138C46.2884 9.23587 46.5701 9.0973 46.7753 8.92564C46.9774 8.74376 47.1077 8.54416 47.166 8.32682C47.2345 8.10648 47.2371 7.88887 47.1738 7.674C47.0803 7.35681 46.9328 7.13897 46.7311 7.02048C46.5396 6.89897 46.287 6.83437 45.9734 6.82669C45.6568 6.80878 45.2833 6.8243 44.8529 6.87325C44.4972 6.91134 44.1405 6.92745 43.7829 6.92159C43.4254 6.91574 43.0946 6.86863 42.7906 6.78028C42.4835 6.6817 42.2171 6.53224 41.9913 6.33189C41.7757 6.12853 41.6151 5.84779 41.5096 5.48967C41.38 5.0497 41.378 4.62773 41.5036 4.22376C41.6262 3.80956 41.8686 3.44347 42.2309 3.12547C42.6033 2.80446 43.0709 2.56105 43.6337 2.39526C44.4625 2.15109 45.1914 2.15317 45.8206 2.40149C46.4498 2.64981 46.9219 3.13899 47.2371 3.86901L45.9632 4.24431C45.7975 3.87057 45.5397 3.61847 45.1899 3.488C44.8474 3.34429 44.4305 3.34478 43.9394 3.48948C43.4585 3.63115 43.1188 3.83688 42.9203 4.10664C42.732 4.37339 42.6845 4.66536 42.778 4.98255C42.8383 5.18719 42.959 5.35177 43.1403 5.47629C43.3288 5.58757 43.5726 5.66029 43.8718 5.69447C44.1812 5.72563 44.546 5.71824 44.9661 5.6723C45.5048 5.61366 46.0066 5.59929 46.4713 5.62918C46.936 5.65906 47.3415 5.7898 47.6877 6.0214C48.0412 6.23975 48.2993 6.62518 48.462 7.1777C48.6037 7.6586 48.6045 8.11428 48.4645 8.54474C48.3346 8.97219 48.0799 9.35304 47.7002 9.6873C47.3175 10.0113 46.8294 10.2608 46.236 10.4356ZM55.457 8.67781C54.7026 8.74348 54.0178 8.62641 53.4028 8.32661C52.7985 8.02588 52.3043 7.57637 51.9203 6.97808C51.5354 6.36916 51.3064 5.64495 51.2334 4.80546C51.1594 3.95534 51.2545 3.20293 51.5187 2.54822C51.7936 1.89258 52.208 1.36399 52.7619 0.962449C53.3265 0.55998 53.9913 0.32545 54.7564 0.258857C55.5428 0.190414 56.2222 0.307945 56.7946 0.61145C57.3777 0.914029 57.8377 1.33975 58.1746 1.88861C58.5211 2.42591 58.724 3.03461 58.7832 3.71471C58.7925 3.82097 58.8022 3.93255 58.8124 4.04944C58.8225 4.16634 58.8288 4.29963 58.8311 4.44933L52.2639 5.02091L52.1737 3.98483L57.4498 3.52562C57.3541 2.79516 57.0597 2.24261 56.5667 1.86794C56.0844 1.49236 55.5031 1.33416 54.823 1.39335C54.3661 1.43312 53.9503 1.57638 53.5756 1.82314C53.2106 2.05834 52.9288 2.38801 52.7302 2.81217C52.5306 3.2257 52.4567 3.73 52.5085 4.32508L52.5474 4.7714C52.6047 5.43024 52.7697 5.97264 53.0423 6.39861C53.3256 6.82365 53.6682 7.1311 54.0702 7.32096C54.4828 7.50989 54.9122 7.58494 55.3585 7.54609C55.9217 7.49707 56.3734 7.33463 56.7134 7.05878C57.0631 6.77137 57.2992 6.4082 57.4216 5.96927L58.7446 5.85412C58.6587 6.34341 58.473 6.7932 58.1875 7.20351C57.902 7.61381 57.5299 7.95135 57.0711 8.21612C56.622 8.46935 56.084 8.62324 55.457 8.67781ZM70.0177 9.45208C69.3609 9.31012 68.8111 9.07672 68.3684 8.75187C67.9361 8.42927 67.6157 8.04354 67.4072 7.59469C67.2113 7.13766 67.1395 6.63653 67.1919 6.09129L68.5368 6.38197C68.5304 6.66431 68.5858 6.93819 68.703 7.20361C68.8203 7.46904 69.0039 7.70515 69.2538 7.91195C69.5164 8.11058 69.8563 8.25497 70.2733 8.3451C70.6382 8.42397 70.9518 8.43718 71.2142 8.38475C71.4788 8.32189 71.6887 8.20902 71.8439 8.04614C72.0096 7.88551 72.1161 7.69573 72.1634 7.47678C72.2333 7.15358 72.208 6.89167 72.0877 6.69105C71.9778 6.49269 71.787 6.31505 71.5153 6.15812C71.246 5.99077 70.9106 5.82554 70.5094 5.66242C70.1788 5.52551 69.858 5.36886 69.5469 5.1925C69.2358 5.01613 68.968 4.81638 68.7434 4.59323C68.521 4.35965 68.3587 4.10085 68.2564 3.81683C68.1645 3.53506 68.158 3.21172 68.2369 2.84682C68.3338 2.3985 68.5341 2.0271 68.8378 1.73262C69.1438 1.42771 69.5319 1.2224 70.0022 1.1167C70.4829 1.01324 71.01 1.02348 71.5834 1.14742C72.4279 1.32994 73.0669 1.68083 73.5003 2.20011C73.9337 2.71939 74.1139 3.37493 74.041 4.16673L72.743 3.88619C72.7765 3.47874 72.6709 3.13399 72.4263 2.85195C72.1944 2.56174 71.8282 2.36256 71.3278 2.2544C70.8378 2.14849 70.441 2.16642 70.1376 2.30818C69.8445 2.45219 69.6631 2.6858 69.5932 3.009C69.5482 3.21752 69.5754 3.41984 69.6748 3.61594C69.787 3.80388 69.9662 3.98448 70.2125 4.15776C70.4692 4.33328 70.793 4.50148 71.1838 4.66234C71.6849 4.86884 72.1322 5.09647 72.5259 5.34525C72.9195 5.59403 73.2129 5.90297 73.4059 6.27208C73.6117 6.63302 73.6537 7.09499 73.532 7.65799C73.4261 8.14801 73.2086 8.54843 72.8795 8.85926C72.5609 9.17234 72.1548 9.3847 71.6615 9.49632C71.1703 9.59752 70.6224 9.58278 70.0177 9.45208ZM78.3974 11.8011C77.9518 11.6226 77.5935 11.3986 77.3222 11.1291C77.051 10.8595 76.8917 10.5257 76.8444 10.1275C76.811 9.72345 76.9073 9.23921 77.1334 8.67481L78.8054 4.50128L77.4984 3.97766L77.9209 2.92314L79.2279 3.44676L80.1172 1.70022L81.2014 2.13459L80.4755 3.94658L82.644 4.81532L82.2215 5.86984L80.053 5.00111L78.381 9.17464C78.1946 9.64001 78.1617 9.99455 78.2824 10.2382C78.407 10.472 78.707 10.6841 79.1823 10.8746L79.9843 11.1959L79.5559 12.2652L78.3974 11.8011ZM84.4396 15.2124C83.9162 14.8824 83.5215 14.4885 83.2553 14.0307C82.9982 13.5785 82.8979 13.0676 82.9544 12.498C83.02 11.934 83.2576 11.3272 83.6672 10.6776L86.2443 6.59025L87.3812 7.30707L84.8809 11.2726C84.4542 11.9493 84.2816 12.553 84.3632 13.0836C84.4448 13.6142 84.7562 14.0502 85.2976 14.3915C85.6766 14.6305 86.0763 14.7564 86.4969 14.7694C86.9231 14.7734 87.3301 14.6579 87.7177 14.4232C88.12 14.1851 88.4805 13.8134 88.7991 13.3081L91.1031 9.65383L92.24 10.3707L87.9391 17.1919L86.9105 16.5434L87.5937 15.3097C87.1188 15.6029 86.6016 15.7433 86.0419 15.7309C85.488 15.7095 84.9539 15.5367 84.4396 15.2124ZM92.8547 21.7093C92.3016 21.1612 91.9444 20.5519 91.783 19.8813C91.6291 19.2032 91.6637 18.5242 91.887 17.8444C92.1102 17.1645 92.5071 16.5367 93.0778 15.9609C93.6484 15.3851 94.2689 14.9863 94.9392 14.7646C95.617 14.5353 96.2919 14.4983 96.9638 14.6537C97.6434 14.8166 98.2597 15.1721 98.8128 15.7202C99.2825 16.1857 99.5978 16.6859 99.7586 17.2207C99.927 17.763 99.9369 18.2984 99.7884 18.8271L103.156 15.4291L104.111 16.3752L96.0014 24.5576L95.1377 23.7016L95.993 22.6795C95.684 22.7488 95.3523 22.7729 94.9977 22.7519C94.6506 22.7233 94.2919 22.6306 93.9216 22.4739C93.5588 22.3096 93.2032 22.0547 92.8547 21.7093ZM93.7905 20.9924C94.1693 21.3678 94.5928 21.6072 95.0609 21.7107C95.529 21.8142 96.0003 21.7857 96.4747 21.6252C96.9567 21.4571 97.4154 21.1533 97.8509 20.7139C98.2789 20.282 98.5748 19.8244 98.7386 19.3409C98.9023 18.8575 98.9304 18.3822 98.8227 17.915C98.715 17.4479 98.4717 17.0266 98.0929 16.6511C97.7217 16.2832 97.302 16.0475 96.8339 15.944C96.3658 15.8405 95.8907 15.8728 95.4088 16.0409C94.9268 16.209 94.4718 16.509 94.0438 16.9409C93.6084 17.3803 93.3087 17.8417 93.145 18.3252C92.9887 18.8011 92.9644 19.2726 93.0721 19.7398C93.1798 20.2069 93.4193 20.6244 93.7905 20.9924ZM95.5873 29.5925L100.365 28.851L100.113 28.4612L104.417 21.9121L105.207 23.1354L101.455 28.6808L108.123 27.6521L108.878 28.8216L96.3509 30.7755L95.5873 29.5925ZM108.987 40.7921C108.889 40.4651 108.879 40.1341 108.957 39.799C109.038 39.4742 109.192 39.1888 109.419 38.9428C109.657 38.6938 109.944 38.5189 110.281 38.4181C110.629 38.3142 110.965 38.3028 111.289 38.3839C111.625 38.4619 111.915 38.6144 112.161 38.8415C112.41 39.0788 112.583 39.3609 112.681 39.688C112.785 40.0355 112.796 40.3716 112.715 40.6964C112.637 41.0315 112.48 41.3235 112.242 41.5725C112.015 41.8185 111.728 41.9934 111.381 42.0973C111.043 42.1981 110.707 42.2095 110.372 42.1315C110.047 42.0504 109.76 41.8913 109.511 41.654C109.265 41.4269 109.09 41.1396 108.987 40.7921ZM107.738 54.0358L115.758 50.8651L115.778 52.273L109.045 54.8013L115.848 57.1525L115.867 58.5283L107.76 55.5877L107.738 54.0358ZM107.659 61.2139L115.653 62.2733L115.477 63.6056L107.482 62.5462L107.659 61.2139ZM117.262 63.1644C117.297 62.9 117.411 62.6892 117.604 62.5318C117.806 62.3865 118.04 62.3313 118.304 62.3663C118.568 62.4014 118.769 62.514 118.905 62.7042C119.05 62.9064 119.105 63.1396 119.07 63.404C119.037 63.6578 118.923 63.8633 118.73 64.0207C118.548 64.1794 118.324 64.2413 118.06 64.2062C117.796 64.1712 117.586 64.0519 117.43 63.8483C117.284 63.6461 117.228 63.4182 117.262 63.1644ZM105.704 69.1519C105.916 68.4249 106.273 67.829 106.776 67.3644C107.275 66.91 107.873 66.6122 108.57 66.4709C109.277 66.3327 110.035 66.3815 110.843 66.6175C111.663 66.8564 112.33 67.2176 112.844 67.701C113.356 68.1946 113.698 68.7723 113.872 69.4341C114.043 70.1061 114.021 70.8107 113.805 71.548C113.584 72.3058 113.229 72.8965 112.739 73.3202C112.245 73.7541 111.682 74.0287 111.048 74.1439C110.422 74.2723 109.781 74.241 109.126 74.0498C109.023 74.0199 108.916 73.9886 108.803 73.9557C108.691 73.9229 108.564 73.8804 108.424 73.8284L110.269 67.5L111.268 67.7912L109.785 72.8754C110.501 73.0508 111.122 72.9765 111.65 72.6527C112.175 72.3391 112.533 71.8546 112.724 71.1992C112.852 70.7589 112.869 70.3194 112.775 69.8808C112.688 69.4554 112.483 69.0733 112.159 68.7346C111.846 68.3988 111.403 68.1473 110.829 67.98L110.399 67.8546C109.764 67.6694 109.199 67.6268 108.703 67.7266C108.205 67.8367 107.794 68.0447 107.471 68.3506C107.146 68.6668 106.92 69.0399 106.795 69.47C106.637 70.0127 106.624 70.4925 106.758 70.9094C106.9 71.3394 107.153 71.691 107.517 71.9641L107.146 73.239C106.721 72.9817 106.369 72.6457 106.09 72.231C105.811 71.8163 105.631 71.3471 105.55 70.8236C105.477 70.3133 105.528 69.7561 105.704 69.1519ZM103.093 76.4525L111.26 78.4367L110.588 79.6004L103.779 77.7914L103.899 77.5836L108.787 82.7174L108.026 84.0335L101.136 82.3988L101.25 82.1691L106.225 87.1506L105.544 88.3281L99.7391 82.2571L100.428 81.0657L107.635 82.7913L107.499 83.0268L102.405 77.6439L103.093 76.4525ZM90.7301 92.2693C91.3102 91.7825 91.9463 91.4785 92.6383 91.3573C93.3221 91.2429 93.9971 91.3171 94.6631 91.5797C95.336 91.8505 95.9398 92.3046 96.4747 92.9419C97.0232 93.5956 97.369 94.2731 97.5121 94.9746C97.6552 95.6761 97.6111 96.3537 97.3799 97.0073C97.1473 97.676 96.7409 98.2537 96.1608 98.7405C95.4254 99.3577 94.6515 99.6799 93.839 99.7073C93.0333 99.7429 92.2977 99.4969 91.6321 98.9692L92.6861 98.0847C93.0901 98.4002 93.5406 98.5304 94.0375 98.4754C94.5345 98.4204 94.9995 98.2112 95.4325 97.8478C95.7838 97.553 96.0352 97.1888 96.1867 96.7554C96.345 96.3301 96.3666 95.8663 96.2516 95.3641C96.1365 94.8619 95.8629 94.3535 95.4309 93.8387C95.1087 93.4547 94.7676 93.1561 94.4076 92.9429C94.0546 92.7379 93.7059 92.6128 93.3616 92.5675C93.0172 92.5223 92.682 92.546 92.3559 92.6386C92.0285 92.7463 91.7341 92.9098 91.4726 93.1292C91.1785 93.3761 90.9507 93.6439 90.7891 93.9326C90.6345 94.2295 90.5543 94.5405 90.5486 94.8655C90.5429 95.1906 90.6177 95.5038 90.7731 95.8051L89.719 96.6896C89.3286 95.9589 89.2181 95.1884 89.3874 94.3779C89.5553 93.5825 90.0029 92.8796 90.7301 92.2693ZM83.3666 97.4475C83.9405 97.1408 84.4731 96.9832 84.9644 96.9747C85.4607 96.9756 85.8909 97.0904 86.255 97.3191C86.6241 97.5572 86.9142 97.8739 87.1254 98.269C87.3817 98.7488 87.4756 99.2187 87.4069 99.6787C87.3339 100.153 87.1168 100.596 86.7557 101.006C86.3903 101.431 85.8971 101.81 85.2761 102.142L83.3993 103.144C83.6355 103.587 83.9022 103.916 84.1991 104.132C84.4917 104.363 84.8099 104.483 85.1537 104.493C85.4882 104.507 85.8483 104.412 86.234 104.206C86.6856 103.964 87.0157 103.643 87.2243 103.241C87.4329 102.839 87.4567 102.397 87.2957 101.915L88.5094 101.267C88.7244 101.805 88.7812 102.319 88.68 102.808C88.5743 103.312 88.3482 103.771 88.0015 104.186C87.6599 104.611 87.2492 104.951 86.7694 105.208C86.1108 105.56 85.4998 105.729 84.9363 105.715C84.3685 105.716 83.8608 105.558 83.4131 105.241C82.9706 104.934 82.5934 104.488 82.2818 103.905L79.9292 99.5019L80.9875 98.9364L81.7292 100.155C81.7177 99.9068 81.7395 99.6533 81.7945 99.3941C81.8451 99.1494 81.934 98.9083 82.0612 98.6711C82.1934 98.4432 82.3664 98.2238 82.5802 98.0128C82.7846 97.8068 83.0468 97.6184 83.3666 97.4475ZM83.7185 98.5474C83.3893 98.7234 83.1281 98.9476 82.9351 99.22C82.7376 99.5069 82.6077 99.8182 82.5452 100.154C82.4877 100.499 82.4899 100.843 82.5516 101.185C82.604 101.532 82.7156 101.865 82.8865 102.185L82.9092 102.227L84.6872 101.277C85.1482 101.031 85.4897 100.776 85.7116 100.512C85.9385 100.258 86.0604 99.9991 86.0771 99.7362C86.0989 99.4827 86.0444 99.2336 85.9137 98.989C85.778 98.735 85.6034 98.5441 85.39 98.4162C85.1671 98.2934 84.9152 98.2406 84.6341 98.2578C84.3436 98.28 84.0384 98.3765 83.7185 98.5474ZM74.2172 101.432C74.8598 101.236 75.4535 101.171 75.9984 101.239C76.5332 101.309 77.0011 101.489 77.4022 101.779C77.7962 102.083 78.1034 102.485 78.3239 102.987L77.0081 103.389C76.8759 103.14 76.6939 102.928 76.462 102.753C76.2302 102.579 75.9547 102.462 75.6356 102.404C75.3094 102.359 74.9423 102.398 74.5344 102.523C74.1774 102.633 73.8972 102.774 73.6938 102.948C73.4936 103.132 73.3654 103.333 73.3094 103.551C73.2432 103.772 73.2429 103.99 73.3085 104.204C73.4053 104.52 73.5551 104.736 73.7581 104.853C73.9508 104.972 74.204 105.034 74.5177 105.038C74.8345 105.053 75.2078 105.033 75.6377 104.98C75.993 104.938 76.3495 104.918 76.7071 104.92C77.0647 104.923 77.3959 104.966 77.7009 105.051C78.0089 105.147 78.2769 105.293 78.5048 105.491C78.7226 105.692 78.8861 105.971 78.9953 106.328C79.1296 106.767 79.136 107.189 79.0146 107.594C78.8964 108.01 78.6578 108.378 78.299 108.7C77.9299 109.025 77.4649 109.273 76.9039 109.445C76.0777 109.698 75.3488 109.703 74.717 109.462C74.0853 109.22 73.608 108.736 73.2852 108.009L74.5551 107.62C74.7247 107.992 74.9851 108.242 75.3362 108.369C75.6803 108.509 76.0971 108.504 76.5867 108.354C77.0661 108.207 77.4036 107.998 77.5993 107.726C77.7848 107.457 77.8291 107.165 77.7323 106.849C77.6699 106.645 77.5474 106.481 77.3649 106.359C77.1752 106.25 76.9307 106.179 76.6311 106.148C76.3214 106.121 75.9567 106.132 75.5371 106.182C74.999 106.246 74.4975 106.266 74.0325 106.241C73.5674 106.216 73.1606 106.09 72.812 105.862C72.4562 105.647 72.1941 105.264 72.0255 104.714C71.8788 104.234 71.8732 103.779 72.0087 103.347C72.134 102.918 72.3848 102.534 72.7609 102.196C73.1402 101.868 73.6256 101.613 74.2172 101.432ZM65.0134 103.283C65.7672 103.21 66.4531 103.321 67.0709 103.615C67.6781 103.91 68.1766 104.354 68.5663 104.949C68.957 105.554 69.193 106.276 69.2741 107.115C69.3563 107.964 69.2684 108.718 69.0105 109.375C68.7419 110.033 68.3326 110.566 67.7826 110.972C67.2219 111.38 66.5593 111.621 65.7949 111.695C65.0093 111.771 64.3287 111.66 63.7534 111.362C63.1674 111.065 62.7033 110.644 62.3612 110.098C62.0095 109.564 61.8008 108.958 61.7351 108.278C61.7248 108.172 61.714 108.06 61.7027 107.944C61.6914 107.827 61.6839 107.694 61.6801 107.544L68.2415 106.909L68.3417 107.945L63.0703 108.454C63.173 109.184 63.4726 109.734 63.9692 110.103C64.4552 110.474 65.0379 110.627 65.7174 110.561C66.1739 110.517 66.5884 110.37 66.9606 110.12C67.3233 109.881 67.602 109.549 67.7965 109.122C67.9921 108.707 68.0611 108.202 68.0036 107.607L67.9605 107.162C67.8968 106.503 67.7266 105.963 67.4499 105.539C67.1626 105.117 66.8171 104.813 66.4133 104.627C65.9989 104.442 65.5687 104.371 65.1228 104.414C64.5601 104.468 64.1101 104.635 63.7727 104.914C63.4257 105.205 63.1932 105.57 63.075 106.011L61.7532 106.138C61.8344 105.648 62.0157 105.197 62.2973 104.784C62.5788 104.371 62.9477 104.03 63.4039 103.76C63.8505 103.503 64.387 103.344 65.0134 103.283ZM50.4449 102.643C51.1029 102.779 51.6548 103.007 52.1004 103.328C52.5355 103.647 52.8594 104.03 53.072 104.477C53.272 104.932 53.3482 105.432 53.3007 105.978L51.9532 105.699C51.9572 105.417 51.8993 105.144 51.7797 104.879C51.6601 104.615 51.4744 104.38 51.2225 104.176C50.9581 103.98 50.617 103.838 50.1992 103.752C49.8336 103.676 49.5199 103.666 49.258 103.721C48.994 103.786 48.7851 103.901 48.6313 104.065C48.4671 104.227 48.3623 104.418 48.317 104.637C48.25 104.961 48.2776 105.223 48.3998 105.422C48.5115 105.62 48.7038 105.796 48.9769 105.95C49.2478 106.115 49.5846 106.277 49.9873 106.437C50.319 106.571 50.6412 106.724 50.9539 106.898C51.2666 107.071 51.5362 107.269 51.7628 107.49C51.9872 107.722 52.1519 107.979 52.2567 108.262C52.3511 108.543 52.3606 108.866 52.285 109.232C52.1921 109.681 51.9951 110.054 51.6941 110.351C51.3908 110.659 51.0046 110.868 50.5353 110.978C50.0555 111.085 49.5284 111.08 48.9539 110.961C48.1077 110.786 47.4657 110.441 47.0276 109.926C46.5895 109.41 46.4034 108.756 46.4692 107.964L47.7697 108.233C47.7398 108.641 47.8485 108.984 48.0956 109.264C48.3302 109.552 48.6981 109.748 49.1995 109.852C49.6905 109.953 50.087 109.932 50.3892 109.787C50.6809 109.641 50.8603 109.406 50.9272 109.082C50.9704 108.873 50.9414 108.671 50.8401 108.476C50.7263 108.289 50.5455 108.11 50.2976 107.939C50.0393 107.765 49.7141 107.6 49.3218 107.443C48.8189 107.241 48.3696 107.017 47.9737 106.772C47.5778 106.527 47.2817 106.22 47.0853 105.853C46.8764 105.494 46.8302 105.032 46.9468 104.468C47.0483 103.977 47.2622 103.575 47.5885 103.261C47.9043 102.945 48.3084 102.729 48.8008 102.613C49.291 102.508 49.839 102.517 50.4449 102.643ZM42.0431 100.374C42.4904 100.548 42.8511 100.768 43.125 101.035C43.399 101.302 43.5616 101.634 43.6129 102.032C43.6505 102.435 43.5591 102.92 43.3387 103.487L41.709 107.677L43.0213 108.188L42.6095 109.246L41.2972 108.736L40.4257 110.492L39.3371 110.068L40.0446 108.249L37.8675 107.402L38.2793 106.343L40.4564 107.19L42.0861 103C42.2678 102.533 42.2971 102.178 42.1739 101.935C42.0469 101.703 41.7448 101.494 41.2676 101.308L40.4624 100.995L40.88 99.9214L42.0431 100.374ZM35.9655 97.027C36.4924 97.3512 36.8914 97.7407 37.1626 98.1956C37.4247 98.6449 37.5306 99.1547 37.4803 99.7249C37.421 100.29 37.1901 100.899 36.7876 101.553L34.2555 105.668L33.1108 104.964L35.5675 100.971C35.9867 100.29 36.1526 99.6845 36.0652 99.1548C35.9778 98.6251 35.6616 98.1926 35.1165 97.8572C34.735 97.6225 34.3338 97.5009 33.9132 97.4925C33.4869 97.4933 33.0812 97.6132 32.6962 97.8522C32.2965 98.0947 31.9402 98.4703 31.6272 98.9791L29.3633 102.658L28.2187 101.954L32.4444 95.086L33.4801 95.7232L32.8104 96.9643C33.2821 96.6659 33.7978 96.5198 34.3575 96.5261C34.9117 96.5414 35.4477 96.7084 35.9655 97.027ZM27.4849 90.6181C28.0431 91.161 28.4061 91.7669 28.5739 92.4359C28.7342 93.1126 28.7059 93.7919 28.4892 94.4738C28.2724 95.1557 27.8814 95.7872 27.3162 96.3684C26.7511 96.9496 26.1344 97.3542 25.4662 97.5823C24.7906 97.818 24.1161 97.8614 23.4427 97.7124C22.7616 97.5559 22.142 97.2063 21.5838 96.6634C21.1096 96.2024 20.7897 95.7052 20.6238 95.172C20.4503 94.6313 20.4353 94.0959 20.5788 93.5659L17.2435 96.9956L16.28 96.0586L24.3114 87.7998L25.1831 88.6475L24.3376 89.6777C24.6458 89.6055 24.9774 89.5782 25.3321 89.5959C25.6795 89.6212 26.039 89.7105 26.4108 89.8637C26.7751 90.0246 27.1331 90.2761 27.4849 90.6181ZM26.5559 91.3439C26.1735 90.9721 25.7478 90.7367 25.2788 90.6376C24.8097 90.5386 24.3387 90.5715 23.8658 90.7365C23.3855 90.9092 22.9296 91.2173 22.4983 91.6608C22.0744 92.0967 21.7829 92.5571 21.6237 93.0421C21.4645 93.5271 21.441 94.0027 21.5531 94.4688C21.6652 94.9349 21.9125 95.3539 22.2948 95.7257C22.6695 96.0901 23.0914 96.3218 23.5605 96.4208C24.0295 96.5199 24.5042 96.4831 24.9846 96.3104C25.4649 96.1378 25.9171 95.8335 26.3409 95.3976C26.7722 94.9541 27.0675 94.4899 27.2267 94.0049C27.3784 93.5275 27.3982 93.0558 27.2861 92.5897C27.174 92.1236 26.9306 91.7083 26.5559 91.3439ZM24.6733 82.7587L19.9039 83.5505L20.1597 83.9376L15.9247 90.5317L15.1222 89.3168L18.8159 83.7322L12.1592 84.831L11.392 83.6696L23.8973 81.5838L24.6733 82.7587ZM11.1471 71.7391C11.2517 72.0641 11.2685 72.3948 11.1976 72.7314C11.1234 73.0579 10.9753 73.3464 10.7535 73.5971C10.5215 73.8511 10.2379 74.032 9.90288 74.1399C9.55766 74.251 9.22183 74.2695 8.89538 74.1953C8.55879 74.1243 8.26514 73.9779 8.01443 73.7561C7.76046 73.5241 7.58118 73.2456 7.47659 72.9207C7.36546 72.5755 7.347 72.2396 7.42121 71.9132C7.49215 71.5766 7.64362 71.2813 7.87563 71.0273C8.09748 70.7766 8.38102 70.5957 8.72624 70.4846C9.06131 70.3767 9.39714 70.3583 9.73373 70.4292C10.0602 70.5034 10.3504 70.6565 10.6044 70.8885C10.8551 71.1104 11.036 71.3939 11.1471 71.7391Z" fill="white"/>
</svg>
